<svg width="136" height="40" viewBox="0 0 136 40" fill="none" xmlns="http://www.w3.org/2000/svg">
<circle cx="20" cy="20" r="20" fill="#5468E7"/>
<path fill-rule="evenodd" clip-rule="evenodd" d="M26 19.5335C26.0006 16.5904 23.7103 14.162 20.7885 14.0077C17.8666 13.8535 15.3362 16.0273 15.0305 18.9543C14.7248 21.8813 16.7509 24.5367 19.6408 24.9965V21.1323H18.2446V19.5335H19.6408V18.3144C19.58 17.7382 19.7768 17.1646 20.178 16.7489C20.5792 16.3331 21.1434 16.1182 21.7177 16.1623C22.1302 16.1678 22.5418 16.2038 22.949 16.2702V17.6332H22.256C22.0169 17.6018 21.7765 17.6813 21.6027 17.8494C21.4289 18.0176 21.3404 18.256 21.3623 18.4976V19.5349H22.8878L22.6437 21.1337H21.3595V25C24.0328 24.5746 26.0011 22.256 26 19.5335Z" fill="white"/>
<g clip-path="url(#clip0_0_2351)">
<circle cx="68" cy="20" r="20" fill="white" stroke="#D8D8D8"/>
<path fill-rule="evenodd" clip-rule="evenodd" d="M73.1387 17.9911C72.9977 17.0667 72.5747 16.4267 71.5877 16.2844C70.0368 16 67.6398 16 67.6398 16C67.6398 16 65.2429 16 63.692 16.2844C62.705 16.4267 62.2115 17.0667 62.141 17.9911C62 18.9156 62 20.2667 62 20.2667C62 20.2667 62 21.6178 62.141 22.5422C62.282 23.4667 62.705 24.1067 63.692 24.2489C65.2429 24.5333 67.6398 24.5333 67.6398 24.5333C67.6398 24.5333 70.0368 24.5333 71.5877 24.2489C72.5747 24.0356 72.9977 23.4667 73.1387 22.5422C73.2797 21.6178 73.2797 20.2667 73.2797 20.2667C73.2797 20.2667 73.2797 18.9156 73.1387 17.9911ZM66.2299 22.4V18.1333L69.7548 20.2667L66.2299 22.4Z" fill="#ADADAD"/>
</g>
<g clip-path="url(#clip1_0_2351)">
<circle cx="116" cy="20" r="20" fill="white" stroke="#D8D8D8"/>
<ellipse cx="118.562" cy="16.7677" rx="0.676782" ry="0.682667" fill="#ADADAD"/>
<path fill-rule="evenodd" clip-rule="evenodd" d="M115.64 22.5333C114.085 22.5333 112.82 21.2576 112.82 19.6889C112.82 18.1202 114.085 16.8445 115.64 16.8445C117.195 16.8445 118.46 18.1202 118.46 19.6889C118.46 21.2576 117.195 22.5333 115.64 22.5333ZM115.64 18.2667C114.862 18.2667 114.23 18.9045 114.23 19.6889C114.23 20.4733 114.862 21.1111 115.64 21.1111C116.417 21.1111 117.05 20.4733 117.05 19.6889C117.05 18.9045 116.417 18.2667 115.64 18.2667Z" fill="#ADADAD"/>
<path fill-rule="evenodd" clip-rule="evenodd" d="M118.46 25.3778H112.82C111.37 25.3778 110 23.9954 110 22.5333V16.8444C110 15.3824 111.37 14 112.82 14H118.46C119.909 14 121.28 15.3824 121.28 16.8444V22.5333C121.28 23.9954 119.909 25.3778 118.46 25.3778ZM112.82 15.4222C112.161 15.4222 111.41 16.1796 111.41 16.8444V22.5333C111.41 23.211 112.148 23.9556 112.82 23.9556H118.46C119.119 23.9556 119.87 23.1982 119.87 22.5333V16.8444C119.87 16.1796 119.119 15.4222 118.46 15.4222H112.82Z" fill="#ADADAD"/>
</g>
<defs>
<clipPath id="clip0_0_2351">
<rect width="40" height="40" fill="white" transform="translate(48)"/>
</clipPath>
<clipPath id="clip1_0_2351">
<rect width="40" height="40" fill="white" transform="translate(96)"/>
</clipPath>
</defs>
</svg>
